General
Complete name                            : X2_2003_Disc1_1080p_BD50.iso
Format                                   : BDAV
Format/Info                              : Blu-ray Video
File size                                : 31.9 GiB (Main Playlist File Segment)
Disc Size                                : 34,248,652,758 bytes (31.9 GB)
Duration                                 : 2 h 13 min
Overall bit rate mode                    : Variable
Overall bit rate                         : 31.59 Mbps
Maximum Overall bit rate                 : 48.0 Mbps

Video
ID                                       : 4113 (0x1011)
Menu ID                                  : 1 (0x1)
Format                                   : AVC
Format/Info                              : Advanced Video Codec
Format profile                           : High@L4.1
Format settings                          : CABAC / 4 Ref Frames
Format settings, CABAC                   : Yes
Format settings, Reference frames        : 4 frames
Codec ID                                 : 27
Duration                                 : 2 h 13 min 47 s
Bit rate mode                            : Variable
Bit rate                                 : 23.4 Mbps
Maximum bit rate                         : 40.0 Mbps
Width                                    : 1 920 pixels
Height                                   : 1 080 pixels
Display aspect ratio                     : 16:9
Original aspect ratio                    : 2.40:1
Frame rate                               : 23.976 (24000/1001) FPS
Color space                              : YUV
Chroma subsampling                       : 4:2:0
Bit depth                                : 8 bits
Scan type                                : Progressive
Bits/(Pixel*Frame)                       : 0.470
Stream size                              : 21.8 GiB (68%)
Color range                              : Limited
Color primaries                          : BT.709
Transfer characteristics                 : BT.709
Matrix coefficients                      : BT.709

Audio #1
ID                                       : 4352 (0x1100)
Menu ID                                  : 1 (0x1)
Format                                   : DTS LBR / DTS
Format/Info                              : Digital Theater Systems
Commercial name                          : DTS-HD Master Audio
Muxing mode                              : Stream extension
Codec ID                                 : 134
Duration                                 : 2 h 13 min 47 s
Bit rate mode                            : Variable / Constant
Bit rate                                 : 4 075 kbps / 1 509 kbps
Channel(s)                               : 6 channels / 6 channels
Channel layout                           : C L R Ls Rs LFE / C L R Ls Rs LFE
Sampling rate                            : 48.0 kHz
Frame rate                               : 93.750 FPS (512 SPF)
Bit depth                                : 24 bits
Compression mode                         : Lossless / Lossy
Stream size                              : 3.80 GiB (12%)
Language                                 : English
Service kind                             : Complete Main

Audio #2
ID                                       : 4353 (0x1101)
Menu ID                                  : 1 (0x1)
Format                                   : AC-3
Format/Info                              : Audio Coding 3
Commercial name                          : Dolby Digital
Codec ID                                 : 129
Duration                                 : 2 h 13 min 47 s
Bit rate mode                            : Constant
Bit rate                                 : 640 kbps
Channel(s)                               : 6 channels
Channel layout                           : L C R Ls Rs LFE
Sampling rate                            : 48.0 kHz
Frame rate                               : 31.250 FPS (1536 SPF)
Bit depth                                : 16 bits
Compression mode                         : Lossy
Stream size                              : 612 MiB (2%)
Language                                 : English
Service kind                             : Complete Main

Audio #3
ID                                       : 4354 (0x1102)
Menu ID                                  : 1 (0x1)
Format                                   : AC-3
Format/Info                              : Audio Coding 3
Commercial name                          : Dolby Digital
Codec ID                                 : 129
Duration                                 : 2 h 13 min 47 s
Bit rate mode                            : Constant
Bit rate                                 : 448 kbps
Channel(s)                               : 6 channels
Channel layout                           : L C R Ls Rs LFE
Sampling rate                            : 48.0 kHz
Frame rate                               : 31.250 FPS (1536 SPF)
Bit depth                                : 16 bits
Compression mode                         : Lossy
Stream size                              : 429 MiB (1%)
Language                                 : French
Service kind                             : Complete Main

Audio #4
ID                                       : 4355 (0x1103)
Menu ID                                  : 1 (0x1)
Format                                   : AC-3
Format/Info                              : Audio Coding 3
Commercial name                          : Dolby Digital
Codec ID                                 : 129
Duration                                 : 2 h 13 min 47 s
Bit rate mode                            : Constant
Bit rate                                 : 640 kbps
Channel(s)                               : 6 channels
Channel layout                           : L C R Ls Rs LFE
Sampling rate                            : 48.0 kHz
Frame rate                               : 31.250 FPS (1536 SPF)
Bit depth                                : 16 bits
Compression mode                         : Lossy
Stream size                              : 612 MiB (2%)
Language                                 : Spanish
Service kind                             : Complete Main

Audio #5
ID                                       : 4356 (0x1104)
Menu ID                                  : 1 (0x1)
Format                                   : AC-3
Format/Info                              : Audio Coding 3
Commercial name                          : Dolby Digital
Codec ID                                 : 129
Duration                                 : 2 h 13 min 47 s
Bit rate mode                            : Constant
Bit rate                                 : 448 kbps
Channel(s)                               : 6 channels
Channel layout                           : L C R Ls Rs LFE
Sampling rate                            : 48.0 kHz
Frame rate                               : 31.250 FPS (1536 SPF)
Bit depth                                : 16 bits
Compression mode                         : Lossy
Stream size                              : 429 MiB (1%)
Language                                 : Portuguese
Service kind                             : Complete Main

Audio #6
ID                                       : 4357 (0x1105)
Menu ID                                  : 1 (0x1)
Format                                   : AC-3
Format/Info                              : Audio Coding 3
Commercial name                          : Dolby Digital
Codec ID                                 : 129
Duration                                 : 2 h 13 min 47 s
Bit rate mode                            : Constant
Bit rate                                 : 224 kbps
Channel(s)                               : 2 channels
Channel layout                           : L R
Sampling rate                            : 48.0 kHz
Frame rate                               : 31.250 FPS (1536 SPF)
Bit depth                                : 16 bits
Compression mode                         : Lossy
Stream size                              : 214 MiB (1%)
Title                                    : Commentary by Bryan Singer and Tom Sigel
Language                                 : English
Service kind                             : Complete Main

Audio #7
ID                                       : 4358 (0x1106)
Menu ID                                  : 1 (0x1)
Format                                   : AC-3
Format/Info                              : Audio Coding 3
Commercial name                          : Dolby Digital
Codec ID                                 : 129
Duration                                 : 2 h 13 min 47 s
Bit rate mode                            : Constant
Bit rate                                 : 224 kbps
Channel(s)                               : 2 channels
Channel layout                           : L R
Sampling rate                            : 48.0 kHz
Frame rate                               : 31.250 FPS (1536 SPF)
Bit depth                                : 16 bits
Compression mode                         : Lossy
Stream size                              : 214 MiB (1%)
Title                                    : Commentary by Lauren Shuler Donner, Ralph Winter, Michael Dougherty, Dan Harris, and David Hayter
Language                                 : English
Service kind                             : Complete Main

Text #1
ID                                       : 4608 (0x1200)
Menu ID                                  : 1 (0x1)
Format                                   : PGS
Codec ID                                 : 144
Duration                                 : 2 h 13 min 47 s
Language                                 : English (SDH)

Text #2
ID                                       : 4609 (0x1201)
Menu ID                                  : 1 (0x1)
Format                                   : PGS
Codec ID                                 : 144
Duration                                 : 2 h 13 min 47 s
Language                                 : French

Text #3
ID                                       : 4610 (0x1202)
Menu ID                                  : 1 (0x1)
Format                                   : PGS
Codec ID                                 : 144
Duration                                 : 2 h 13 min 47 s
Language                                 : Spanish

Text #4
ID                                       : 4611 (0x1203)
Menu ID                                  : 1 (0x1)
Format                                   : PGS
Codec ID                                 : 144
Duration                                 : 2 h 13 min 47 s
Language                                 : Portuguese

Text #5
ID                                       : 4612 (0x1204)
Menu ID                                  : 1 (0x1)
Format                                   : PGS
Codec ID                                 : 144
Duration                                 : 2 h 13 min 47 s
Language                                 : Korean

Text #6
ID                                       : 4613 (0x1205)
Menu ID                                  : 1 (0x1)
Format                                   : PGS
Codec ID                                 : 144
Duration                                 : 2 h 13 min 47 s
Language                                 : Chinese (Traditional)

Text #7
ID                                       : 4614 (0x1206)
Menu ID                                  : 1 (0x1)
Format                                   : PGS
Codec ID                                 : 144
Duration                                 : 2 h 13 min 47 s
Language                                 : Chinese (Simplified)

General
Complete name                            : X2_2003_Disc2_1080p_BD25.iso
Format                                   : BDAV
Format/Info                              : Blu-ray Video
File size                                : 20.4 GiB (Main Playlist File Segment)
Disc Size                                : 21,894,302,208 bytes (20.4 GB)
Duration                                 : 1 h 37 min
Overall bit rate mode                    : Variable
Overall bit rate                         : 14.8 Mbps
Maximum Overall bit rate                 : 28.5 Mbps

Video
ID                                       : 4113 (0x1011)
Menu ID                                  : 1 (0x1)
Format                                   : AVC
Format/Info                              : Advanced Video Codec
Format profile                           : Main@L3.0
Format settings                          : CABAC / 4 Ref Frames
Format settings, CABAC                   : Yes
Format settings, Reference frames        : 4 frames
Codec ID                                 : 27
Duration                                 : 1 h 37 min 59 s
Bit rate mode                            : Variable
Bit rate                                 : 12.5 Mbps
Maximum bit rate                         : 24.0 Mbps
Width                                    : 720 pixels
Height                                   : 480 pixels
Display aspect ratio                     : 16:9
Frame rate                               : 29.970 (30000/1001) FPS
Standard                                 : NTSC
Color space                              : YUV
Chroma subsampling                       : 4:2:0
Bit depth                                : 8 bits
Scan type                                : Interlaced
Scan type, store method                  : Separated fields
Scan order                               : Top Field First (TFF)
Bits/(Pixel*Frame)                       : 1.206
Stream size                              : 8.56 GiB (42%)
Color range                              : Limited
Color primaries                          : BT.601 NTSC
Transfer characteristics                 : BT.601
Matrix coefficients                      : BT.601

Audio #1
ID                                       : 4352 (0x1100)
Menu ID                                  : 1 (0x1)
Format                                   : AC-3
Format/Info                              : Audio Coding 3
Commercial name                          : Dolby Digital
Codec ID                                 : 129
Duration                                 : 1 h 37 min 59 s
Bit rate mode                            : Constant
Bit rate                                 : 192 kbps
Channel(s)                               : 2 channels
Channel layout                           : L R
Sampling rate                            : 48.0 kHz
Frame rate                               : 31.250 FPS (1536 SPF)
Bit depth                                : 16 bits
Compression mode                         : Lossy
Stream size                              : 135 MiB (1%)
Language                                 : English
Service kind                             : Complete Main

Text #1
ID                                       : 4608 (0x1200)
Menu ID                                  : 1 (0x1)
Format                                   : PGS
Codec ID                                 : 144
Duration                                 : 1 h 37 min 59 s
Language                                 : English

Text #2
ID                                       : 4609 (0x1201)
Menu ID                                  : 1 (0x1)
Format                                   : PGS
Codec ID                                 : 144
Duration                                 : 1 h 37 min 59 s
Language                                 : French

Text #3
ID                                       : 4610 (0x1202)
Menu ID                                  : 1 (0x1)
Format                                   : PGS
Codec ID                                 : 144
Duration                                 : 1 h 37 min 59 s
Language                                 : Spanish

Text #4
ID                                       : 4611 (0x1203)
Menu ID                                  : 1 (0x1)
Format                                   : PGS
Codec ID                                 : 144
Duration                                 : 1 h 37 min 59 s
Language                                 : Portuguese

Text #5
ID                                       : 4612 (0x1204)
Menu ID                                  : 1 (0x1)
Format                                   : PGS
Codec ID                                 : 144
Duration                                 : 1 h 37 min 59 s
Language                                 : Korean

Text #6
ID                                       : 4613 (0x1205)
Menu ID                                  : 1 (0x1)
Format                                   : PGS
Codec ID                                 : 144
Duration                                 : 1 h 37 min 59 s
Language                                 : Chinese (Traditional)

Text #7
ID                                       : 4614 (0x1206)
Menu ID                                  : 1 (0x1)
Format                                   : PGS
Codec ID                                 : 144
Duration                                 : 1 h 37 min 59 s
Language                                 : Chinese (Simplified)